<?xml version="1.0" standalone="no"?>
<!DOCTYPE svg PUBLIC "-//W3C//DTD SVG 20010904//EN"
 "http://www.w3.org/TR/2001/REC-SVG-20010904/DTD/svg10.dtd">
<svg version="1.0" xmlns="http://www.w3.org/2000/svg"
 width="310.000000pt" height="310.000000pt" viewBox="0 0 310.000000 310.000000"
 preserveAspectRatio="xMidYMid meet">
<metadata>
Created by potrace 1.11, written by Peter Selinger 2001-2013
</metadata>
<g transform="translate(0.000000,310.000000) scale(0.100000,-0.100000)"
fill="#000000" stroke="none">
<path d="M447 2493 c-1 -1 -14 -4 -27 -6 -39 -6 -83 -26 -107 -49 -23 -22 -67
-98 -57 -98 4 0 2 -6 -3 -12 -6 -8 -9 -300 -8 -738 1 -399 -1 -729 -4 -735 -3
-5 -6 -23 -7 -38 -4 -54 -48 -120 -102 -157 -36 -23 -49 -37 -42 -44 14 -14
460 -16 477 -3 7 5 13 6 13 2 0 -4 7 -2 15 5 8 7 15 10 15 6 0 -10 60 46 82
77 11 15 21 35 23 45 2 9 4 17 5 17 2 0 3 117 5 261 1 143 4 265 7 270 4 5
112 9 260 9 181 -1 262 3 284 12 17 7 34 9 38 6 3 -4 6 -1 6 6 0 7 4 10 9 6
11 -6 81 76 86 102 2 10 4 19 5 21 2 1 3 5 4 10 1 4 4 12 7 17 9 16 5 828 -4
842 -5 7 -10 22 -12 33 -10 54 -87 116 -153 125 -15 2 -27 4 -27 6 0 2 -786 5
-788 2z m418 -55 c15 -7 33 -25 42 -41 35 -69 39 -116 37 -507 -2 -381 -4
-413 -17 -426 -4 -4 -7 -15 -7 -25 0 -10 -15 -34 -34 -54 -31 -33 -37 -35 -58
-24 -28 14 -68 50 -68 60 0 4 -5 20 -11 36 -19 45 -20 89 -20 443 1 367 2 405
14 416 4 4 7 16 7 28 0 35 47 92 87 105 1 1 14 -4 28 -11z"/>
<path d="M1876 1792 c-2 -1 -12 -4 -23 -6 -19 -4 -102 -56 -89 -56 4 0 -2 -14
-14 -30 -12 -17 -23 -38 -25 -48 -2 -9 -4 -17 -6 -17 -8 0 -10 -98 -12 -440
-2 -276 -6 -396 -15 -411 -6 -12 -8 -24 -5 -28 3 -3 1 -6 -6 -6 -7 0 -10 -4
-7 -9 5 -8 -61 -81 -74 -81 -4 0 -18 -9 -31 -21 -16 -13 -20 -22 -12 -27 15
-9 446 -7 491 2 38 7 109 68 125 106 18 44 19 60 22 435 4 443 10 530 37 562
40 48 76 -45 83 -217 4 -85 17 -187 25 -197 2 -2 4 -7 5 -13 1 -5 4 -13 5 -17
1 -5 3 -12 4 -18 2 -9 26 -60 59 -122 6 -13 16 -23 21 -23 5 0 17 -7 26 -15
10 -9 28 -18 41 -21 35 -9 480 -11 485 -3 7 11 -7 39 -20 39 -28 0 -116 132
-113 170 0 3 -5 15 -12 28 -7 12 -14 39 -17 60 -3 20 -8 51 -10 67 -3 17 -7
59 -8 95 -2 36 -5 66 -6 68 -1 1 -3 10 -4 20 -1 9 -7 27 -14 39 -7 12 -12 27
-12 33 0 7 -11 25 -25 42 -14 16 -25 27 -25 23 0 -3 -13 3 -29 14 -15 11 -31
18 -35 14 -3 -3 -6 -2 -6 3 0 8 -766 14 -774 6z"/>
</g>
</svg>
